<svg xmlns="http://www.w3.org/2000/svg" width="20.464" height="20.464" viewBox="0 0 20.464 20.464"><defs></defs><g transform="translate(0)"><path class="a" style="fill:#fbbd00;" d="M4.8,106.441a5.4,5.4,0,0,1,.765-2.777v-3.45H2.111a10.237,10.237,0,0,0,0,12.453h3.45v-3.45A5.4,5.4,0,0,1,4.8,106.441Z" transform="translate(0 -96.21)"/><path class="b" style="fill:#0f9d58;" d="M198.4,373.722l-2.4,2.4,2.4,2.4a10.155,10.155,0,0,0,6.226-2.111v-3.446h-3.446A5.435,5.435,0,0,1,198.4,373.722Z" transform="translate(-188.166 -358.055)"/><path class="c" style="fill:#31aa52;" d="M56.273,325.477l-3.45,3.45a10.394,10.394,0,0,0,.886,1.009,10.165,10.165,0,0,0,7.235,3v-4.8A5.438,5.438,0,0,1,56.273,325.477Z" transform="translate(-50.712 -312.468)"/><path class="d" style="fill:#3c79e6;" d="M266.232,199.669a10.32,10.32,0,0,0-.168-1.854l-.09-.492H256v4.8h4.854a5.411,5.411,0,0,1-2.074,2.224l3.446,3.446a10.392,10.392,0,0,0,1.009-.886A10.165,10.165,0,0,0,266.232,199.669Z" transform="translate(-245.768 -189.437)"/><path class="e" style="fill:#cf2d48;" d="M202.242,6.388l.424.424,3.391-3.391L205.633,3A10.165,10.165,0,0,0,198.4,0L196,2.4l2.4,2.4A5.4,5.4,0,0,1,202.242,6.388Z" transform="translate(-188.166 0)"/><path class="f" style="fill:#eb4132;" d="M60.943,4.8V0a10.165,10.165,0,0,0-7.235,3,10.384,10.384,0,0,0-.886,1.009l3.45,3.45A5.438,5.438,0,0,1,60.943,4.8Z" transform="translate(-50.711 0)"/></g></svg>